<svg xmlns="http://www.w3.org/2000/svg" xmlns:xlink="http://www.w3.org/1999/xlink" width="250" zoomAndPan="magnify" viewBox="0 0 187.5 187.499992" height="250" preserveAspectRatio="xMidYMid meet" version="1.0"><defs><clipPath id="dff3264920"><path d="M 0 0 L 187 0 L 187 187 L 0 187 Z M 0 0 " clip-rule="nonzero"/></clipPath><clipPath id="619933203e"><path d="M 65.625 28.851562 L 121.875 28.851562 L 121.875 85.101562 L 65.625 85.101562 Z M 65.625 28.851562 " clip-rule="nonzero"/></clipPath><clipPath id="cc17e3395d"><path d="M 93.75 28.851562 C 78.21875 28.851562 65.625 41.441406 65.625 56.976562 C 65.625 72.507812 78.21875 85.101562 93.75 85.101562 C 109.28125 85.101562 121.875 72.507812 121.875 56.976562 C 121.875 41.441406 109.28125 28.851562 93.75 28.851562 " clip-rule="nonzero"/></clipPath><clipPath id="3dc42ff074"><path d="M 115 53 L 187 53 L 187 60 L 115 60 Z M 115 53 " clip-rule="nonzero"/></clipPath><clipPath id="fdb084f794"><path d="M 79 42 L 187 42 L 187 158 L 79 158 Z M 79 42 " clip-rule="nonzero"/></clipPath><clipPath id="048580221d"><path d="M 85 33 L 187 33 L 187 124 L 85 124 Z M 85 33 " clip-rule="nonzero"/></clipPath></defs><g clip-path="url(#dff3264920)"><path fill="#ffffff" d="M 0 0 L 187.5 0 L 187.5 195 L 0 195 Z M 0 0 " fill-opacity="1" fill-rule="nonzero"/><path fill="#ffffff" d="M 0 0 L 187.5 0 L 187.5 187.5 L 0 187.5 Z M 0 0 " fill-opacity="1" fill-rule="nonzero"/><path fill="#e6c3bc" d="M 0 0 L 187.5 0 L 187.5 187.5 L 0 187.5 Z M 0 0 " fill-opacity="1" fill-rule="nonzero"/></g><g clip-path="url(#619933203e)"><g clip-path="url(#cc17e3395d)"><path stroke-linecap="butt" transform="matrix(0.75, 0, 0, 0.75, 65.624997, 28.850134)" fill="none" stroke-linejoin="miter" d="M 37.500009 0.00190527 C 16.791673 0.00190527 0.00000417349 16.788366 0.00000417349 37.50191 C 0.00000417349 58.210246 16.791673 75.001915 37.500009 75.001915 C 58.208345 75.001915 75.000014 58.210246 75.000014 37.50191 C 75.000014 16.788366 58.208345 0.00190527 37.500009 0.00190527 " stroke="#000000" stroke-width="16" stroke-opacity="1" stroke-miterlimit="4"/></g></g><path stroke-linecap="butt" transform="matrix(0.747305, 0, 0, 0.75, 0.000004, 53.975131)" fill="none" stroke-linejoin="miter" d="M -0.00000535256 4.00191 L 91.338583 4.00191 " stroke="#000000" stroke-width="8" stroke-opacity="1" stroke-miterlimit="4"/><g clip-path="url(#3dc42ff074)"><path stroke-linecap="butt" transform="matrix(0.7523, 0, 0, 0.75, 118.708584, 53.975131)" fill="none" stroke-linejoin="miter" d="M -0.0020642 4.00191 L 91.721895 4.00191 " stroke="#000000" stroke-width="8" stroke-opacity="1" stroke-miterlimit="4"/></g><g clip-path="url(#fdb084f794)"><path stroke-linecap="butt" transform="matrix(0.533361, 0.533361, -0.53033, 0.53033, 115.275364, 74.729217)" fill="none" stroke-linejoin="miter" d="M -0.000633351 4.00257 L 87.50101 3.998887 " stroke="#000000" stroke-width="8" stroke-opacity="1" stroke-miterlimit="4"/></g><path stroke-linecap="butt" transform="matrix(0.533361, -0.533361, 0.53033, 0.53033, 25.829696, 120.54234)" fill="none" stroke-linejoin="miter" d="M -0.00206226 3.998686 L 87.499581 4.002368 " stroke="#000000" stroke-width="8" stroke-opacity="1" stroke-miterlimit="4"/><path stroke-linecap="butt" transform="matrix(0.000000000000000046, -0.754286, 0.75, 0.000000000000000046, 90.749996, 150.72512)" fill="none" stroke-linejoin="miter" d="M -0.0019124 4.000006 L 87.498098 4.000006 " stroke="#000000" stroke-width="8" stroke-opacity="1" stroke-miterlimit="4"/><g clip-path="url(#048580221d)"><path stroke-linecap="butt" transform="matrix(0.694987, 0.286266, -0.285643, 0.693475, 120.422196, 64.538705)" fill="none" stroke-linejoin="miter" d="M 0.00194617 3.999044 L 78.835941 3.997509 " stroke="#000000" stroke-width="8" stroke-opacity="1" stroke-miterlimit="4"/></g><path stroke-linecap="butt" transform="matrix(-0.687884, 0.294078, -0.294822, -0.689623, 69.08542, 70.071612)" fill="none" stroke-linejoin="miter" d="M -0.000469173 4.000699 L 68.182736 4.001312 " stroke="#000000" stroke-width="8" stroke-opacity="1" stroke-miterlimit="4"/><path stroke-linecap="butt" transform="matrix(-0.279894, 0.702652, -0.696756, -0.277546, 86.151372, 83.48732)" fill="none" stroke-linejoin="miter" d="M 0.00269595 4.000451 L 53.555016 3.999423 " stroke="#000000" stroke-width="8" stroke-opacity="1" stroke-miterlimit="4"/><path stroke-linecap="butt" transform="matrix(0.295548, 0.694119, -0.690052, 0.293816, 107.21221, 80.648175)" fill="none" stroke-linejoin="miter" d="M 0.00153348 3.999029 L 55.681863 3.997839 " stroke="#000000" stroke-width="8" stroke-opacity="1" stroke-miterlimit="4"/></svg>