<svg xmlns="http://www.w3.org/2000/svg" xmlns:xlink="http://www.w3.org/1999/xlink" width="500" zoomAndPan="magnify" viewBox="0 0 375 374.999991" height="500" preserveAspectRatio="xMidYMid meet" version="1.0"><defs><clipPath id="6d5dd884eb"><path d="M 147 73.636719 L 228 73.636719 L 228 155 L 147 155 Z M 147 73.636719 " clip-rule="nonzero"/></clipPath><clipPath id="b98ad76c7e"><path d="M 185 166 L 190 166 L 190 301.636719 L 185 301.636719 Z M 185 166 " clip-rule="nonzero"/></clipPath></defs><rect x="-37.5" width="450" fill="#ffffff" y="-37.499999" height="449.999989" fill-opacity="1"/><rect x="-37.5" width="450" fill="#ffffff" y="-37.499999" height="449.999989" fill-opacity="1"/><rect x="-37.5" width="450" fill="#e6c3bc" y="-37.499999" height="449.999989" fill-opacity="1"/><g clip-path="url(#6d5dd884eb)"><path fill="#0e080b" d="M 187.5 154.707031 C 209.820312 154.707031 227.96875 136.539062 227.96875 114.1875 C 227.96875 91.835938 209.820312 73.636719 187.5 73.636719 C 165.179688 73.636719 147.03125 91.804688 147.03125 114.15625 C 147.03125 136.503906 165.179688 154.707031 187.5 154.707031 Z M 187.5 76.851562 C 208.054688 76.851562 224.757812 93.574219 224.757812 114.15625 C 224.757812 134.738281 208.054688 151.457031 187.5 151.457031 C 166.945312 151.457031 150.242188 134.738281 150.242188 114.15625 C 150.242188 93.574219 166.945312 76.851562 187.5 76.851562 Z M 187.5 76.851562 " fill-opacity="1" fill-rule="nonzero"/></g><path fill="#0e080b" d="M 239.371094 112.578125 L 374.71875 112.578125 L 374.71875 115.796875 L 239.371094 115.796875 Z M 239.371094 112.578125 " fill-opacity="1" fill-rule="nonzero"/><path fill="#0e080b" d="M 0.28125 112.578125 L 135.628906 112.578125 L 135.628906 115.796875 L 0.28125 115.796875 Z M 0.28125 112.578125 " fill-opacity="1" fill-rule="nonzero"/><g clip-path="url(#b98ad76c7e)"><path fill="#0e080b" d="M 185.894531 166.089844 L 189.105469 166.089844 L 189.105469 301.605469 L 185.894531 301.605469 Z M 185.894531 166.089844 " fill-opacity="1" fill-rule="nonzero"/></g><path fill="#0e080b" d="M 223.03125 152.03125 L 225.300781 149.757812 L 301.203125 225.75 L 298.929688 228.023438 Z M 223.03125 152.03125 " fill-opacity="1" fill-rule="nonzero"/><path fill="#0e080b" d="M 73.808594 225.746094 L 149.710938 149.75 L 151.980469 152.023438 L 76.082031 228.019531 Z M 73.808594 225.746094 " fill-opacity="1" fill-rule="nonzero"/><path fill="#0e080b" d="M 222.148438 201.003906 L 225.113281 199.757812 L 240.839844 237.300781 L 237.878906 238.546875 Z M 222.148438 201.003906 " fill-opacity="1" fill-rule="nonzero"/><path fill="#0e080b" d="M 206.089844 162.6875 L 209.050781 161.441406 L 219.785156 187.0625 L 216.824219 188.308594 Z M 206.089844 162.6875 " fill-opacity="1" fill-rule="nonzero"/><path fill="#0e080b" d="M 273.335938 151.058594 L 274.550781 148.082031 L 312.1875 163.488281 L 310.972656 166.464844 Z M 273.335938 151.058594 " fill-opacity="1" fill-rule="nonzero"/><path fill="#0e080b" d="M 234.910156 135.328125 L 236.125 132.351562 L 261.78125 142.859375 L 260.566406 145.835938 Z M 234.910156 135.328125 " fill-opacity="1" fill-rule="nonzero"/><path fill="#0e080b" d="M 135.289062 237.789062 L 150.691406 200.109375 L 153.664062 201.328125 L 138.261719 239.007812 Z M 135.289062 237.789062 " fill-opacity="1" fill-rule="nonzero"/><path fill="#0e080b" d="M 155.898438 187.320312 L 166.410156 161.605469 L 169.382812 162.824219 L 158.871094 188.539062 Z M 155.898438 187.320312 " fill-opacity="1" fill-rule="nonzero"/><path fill="#0e080b" d="M 63.253906 164.613281 L 100.753906 148.863281 L 101.996094 151.828125 L 64.5 167.578125 Z M 63.253906 164.613281 " fill-opacity="1" fill-rule="nonzero"/><path fill="#0e080b" d="M 113.46875 143.519531 L 139.058594 132.773438 L 140.300781 135.738281 L 114.710938 146.484375 Z M 113.46875 143.519531 " fill-opacity="1" fill-rule="nonzero"/></svg>